<svg xmlns="http://www.w3.org/2000/svg" xmlns:xlink="http://www.w3.org/1999/xlink" width="940" zoomAndPan="magnify" viewBox="0 0 705 299.999988" height="400" preserveAspectRatio="xMidYMid meet" version="1.0"><defs><g/><clipPath id="4db0aa8ee9"><path d="M 37.847656 71.949219 L 163.636719 71.949219 L 163.636719 197.738281 L 37.847656 197.738281 Z M 37.847656 71.949219 " clip-rule="nonzero"/></clipPath></defs><g clip-path="url(#4db0aa8ee9)"><path fill="#004aad" d="M 38.921875 71.949219 L 162.125 71.949219 C 162.71875 71.949219 163.195312 72.429688 163.195312 73.023438 L 163.195312 196.226562 C 163.195312 196.816406 162.71875 197.296875 162.125 197.296875 L 120.191406 197.296875 C 105.183594 197.296875 93.015625 185.128906 93.015625 170.117188 L 93.015625 143.207031 C 93.015625 142.613281 92.535156 142.132812 91.941406 142.132812 L 80.039062 142.132812 C 79.34375 142.132812 78.832031 141.480469 78.996094 140.804688 L 82.148438 127.933594 C 82.265625 127.453125 82.695312 127.113281 83.1875 127.113281 L 91.941406 127.113281 C 92.535156 127.113281 93.015625 126.632812 93.015625 126.042969 L 93.015625 110.410156 C 93.015625 109.640625 93.804688 109.121094 94.511719 109.425781 L 107.386719 115.007812 C 107.777344 115.179688 108.03125 115.566406 108.03125 115.992188 L 108.03125 126.042969 C 108.03125 126.632812 108.511719 127.113281 109.105469 127.113281 L 128.265625 127.113281 C 128.960938 127.113281 129.472656 127.765625 129.308594 128.441406 L 126.160156 141.316406 C 126.042969 141.796875 125.609375 142.132812 125.117188 142.132812 L 109.105469 142.132812 C 108.511719 142.132812 108.03125 142.613281 108.03125 143.207031 L 108.03125 170.117188 C 108.03125 176.835938 113.476562 182.277344 120.191406 182.277344 L 147.105469 182.277344 C 147.699219 182.277344 148.175781 181.800781 148.175781 181.207031 L 148.175781 88.039062 C 148.175781 87.449219 147.699219 86.96875 147.105469 86.96875 L 53.941406 86.96875 C 53.347656 86.96875 52.867188 87.449219 52.867188 88.039062 L 52.867188 188.714844 C 52.867188 189.308594 52.386719 189.789062 51.792969 189.789062 L 38.921875 189.789062 C 38.328125 189.789062 37.847656 189.308594 37.847656 188.714844 L 37.847656 73.023438 C 37.847656 72.429688 38.328125 71.949219 38.921875 71.949219 " fill-opacity="1" fill-rule="nonzero"/></g><g fill="#004aad" fill-opacity="1"><g transform="translate(166.339948, 197.302051)"><g><path d="M 10.171875 -98.3125 L 24.21875 -98.3125 L 24.21875 -61.40625 L 23.671875 -50.03125 C 25.367188 -53.769531 28.085938 -56.863281 31.828125 -59.3125 C 35.578125 -61.769531 39.945312 -63 44.9375 -63 C 51.269531 -63 56.128906 -61.679688 59.515625 -59.046875 C 62.910156 -56.421875 65.1875 -52.742188 66.34375 -48.015625 C 67.507812 -43.296875 68.09375 -37.144531 68.09375 -29.5625 L 68.09375 0 L 53.78125 0 L 53.78125 -29.703125 C 53.78125 -34.867188 53.488281 -38.921875 52.90625 -41.859375 C 52.320312 -44.804688 51.160156 -47.035156 49.421875 -48.546875 C 47.679688 -50.066406 45.164062 -50.828125 41.875 -50.828125 C 39.195312 -50.828125 36.5 -50.023438 33.78125 -48.421875 C 31.0625 -46.816406 28.804688 -44.472656 27.015625 -41.390625 C 25.234375 -38.316406 24.34375 -34.6875 24.34375 -30.5 L 24.34375 0 L 10.171875 0 Z M 10.171875 -98.3125 "/></g></g></g><g fill="#004aad" fill-opacity="1"><g transform="translate(237.497773, 197.302051)"><g><path d="M 10.5625 -61.40625 L 25.546875 -61.40625 L 25.546875 0 L 10.5625 0 Z M 17.921875 -72.90625 C 15.148438 -72.90625 12.828125 -73.835938 10.953125 -75.703125 C 9.085938 -77.578125 8.15625 -79.898438 8.15625 -82.671875 C 8.15625 -85.160156 9.085938 -87.296875 10.953125 -89.078125 C 12.828125 -90.867188 15.148438 -91.765625 17.921875 -91.765625 C 20.597656 -91.765625 22.867188 -90.867188 24.734375 -89.078125 C 26.609375 -87.296875 27.546875 -85.160156 27.546875 -82.671875 C 27.546875 -79.898438 26.628906 -77.578125 24.796875 -75.703125 C 22.972656 -73.835938 20.679688 -72.90625 17.921875 -72.90625 Z M 17.921875 -72.90625 "/></g></g></g><g fill="#004aad" fill-opacity="1"><g transform="translate(267.859638, 197.302051)"><g><path d="M 9.5 -61.40625 L 23.671875 -61.40625 L 23.8125 -50.15625 C 25.507812 -53.90625 28.1875 -56.984375 31.84375 -59.390625 C 35.5 -61.796875 39.773438 -63 44.671875 -63 C 51.003906 -63 55.863281 -61.679688 59.25 -59.046875 C 62.644531 -56.421875 64.921875 -52.742188 66.078125 -48.015625 C 67.234375 -43.296875 67.8125 -37.144531 67.8125 -29.5625 L 67.8125 0 L 53.375 0 L 53.375 -29.15625 C 53.375 -36.914062 52.613281 -42.507812 51.09375 -45.9375 C 49.582031 -49.375 46.460938 -51.09375 41.734375 -51.09375 C 39.054688 -51.09375 36.332031 -50.269531 33.5625 -48.625 C 30.800781 -46.976562 28.503906 -44.59375 26.671875 -41.46875 C 24.847656 -38.34375 23.9375 -34.6875 23.9375 -30.5 L 23.9375 0 L 9.5 0 Z M 9.5 -61.40625 "/></g></g></g><g fill="#004aad" fill-opacity="1"><g transform="translate(339.017462, 197.302051)"><g><path d="M 38.125 1.34375 C 31.789062 1.34375 26.171875 -0.0820312 21.265625 -2.9375 C 16.359375 -5.789062 12.566406 -9.671875 9.890625 -14.578125 C 7.222656 -19.484375 5.890625 -24.925781 5.890625 -30.90625 C 5.890625 -36.789062 7.203125 -42.179688 9.828125 -47.078125 C 12.460938 -51.984375 16.226562 -55.863281 21.125 -58.71875 C 26.03125 -61.570312 31.695312 -63 38.125 -63 C 44.539062 -63 50.175781 -61.570312 55.03125 -58.71875 C 59.894531 -55.863281 63.644531 -51.984375 66.28125 -47.078125 C 68.914062 -42.179688 70.234375 -36.789062 70.234375 -30.90625 C 70.234375 -24.925781 68.894531 -19.484375 66.21875 -14.578125 C 63.539062 -9.671875 59.769531 -5.789062 54.90625 -2.9375 C 50.050781 -0.0820312 44.457031 1.34375 38.125 1.34375 Z M 38.53125 -10.4375 C 43.695312 -10.4375 47.773438 -12.351562 50.765625 -16.1875 C 53.753906 -20.019531 55.25 -24.832031 55.25 -30.625 C 55.25 -36.425781 53.640625 -41.3125 50.421875 -45.28125 C 47.210938 -49.25 42.976562 -51.234375 37.71875 -51.234375 C 32.632812 -51.234375 28.554688 -49.269531 25.484375 -45.34375 C 22.410156 -41.414062 20.875 -36.507812 20.875 -30.625 C 20.875 -24.925781 22.519531 -20.132812 25.8125 -16.25 C 29.113281 -12.375 33.351562 -10.4375 38.53125 -10.4375 Z M 38.53125 -10.4375 "/></g></g></g><g fill="#004aad" fill-opacity="1"><g transform="translate(409.372728, 197.302051)"><g><path d="M 10.703125 -98.3125 L 25.015625 -98.3125 L 25.015625 0 L 10.703125 0 Z M 10.703125 -98.3125 "/></g></g></g><g fill="#004aad" fill-opacity="1"><g transform="translate(439.467085, 197.302051)"><g><path d="M 38.125 1.34375 C 31.789062 1.34375 26.171875 -0.0820312 21.265625 -2.9375 C 16.359375 -5.789062 12.566406 -9.671875 9.890625 -14.578125 C 7.222656 -19.484375 5.890625 -24.925781 5.890625 -30.90625 C 5.890625 -36.789062 7.203125 -42.179688 9.828125 -47.078125 C 12.460938 -51.984375 16.226562 -55.863281 21.125 -58.71875 C 26.03125 -61.570312 31.695312 -63 38.125 -63 C 44.539062 -63 50.175781 -61.570312 55.03125 -58.71875 C 59.894531 -55.863281 63.644531 -51.984375 66.28125 -47.078125 C 68.914062 -42.179688 70.234375 -36.789062 70.234375 -30.90625 C 70.234375 -24.925781 68.894531 -19.484375 66.21875 -14.578125 C 63.539062 -9.671875 59.769531 -5.789062 54.90625 -2.9375 C 50.050781 -0.0820312 44.457031 1.34375 38.125 1.34375 Z M 38.53125 -10.4375 C 43.695312 -10.4375 47.773438 -12.351562 50.765625 -16.1875 C 53.753906 -20.019531 55.25 -24.832031 55.25 -30.625 C 55.25 -36.425781 53.640625 -41.3125 50.421875 -45.28125 C 47.210938 -49.25 42.976562 -51.234375 37.71875 -51.234375 C 32.632812 -51.234375 28.554688 -49.269531 25.484375 -45.34375 C 22.410156 -41.414062 20.875 -36.507812 20.875 -30.625 C 20.875 -24.925781 22.519531 -20.132812 25.8125 -16.25 C 29.113281 -12.375 33.351562 -10.4375 38.53125 -10.4375 Z M 38.53125 -10.4375 "/></g></g></g><g fill="#004aad" fill-opacity="1"><g transform="translate(509.822351, 197.302051)"><g><path d="M 39.328125 32.109375 C 34.773438 32.109375 30.289062 31.484375 25.875 30.234375 C 21.46875 28.984375 18.328125 27.820312 16.453125 26.75 L 19.65625 13.375 C 25.539062 17.207031 31.960938 19.125 38.921875 19.125 C 44.273438 19.125 48.78125 17.832031 52.4375 15.25 C 56.09375 12.664062 57.960938 7.628906 58.046875 0.140625 L 58.046875 -10.828125 C 56.179688 -7.359375 53.148438 -4.460938 48.953125 -2.140625 C 44.765625 0.179688 40.128906 1.34375 35.046875 1.34375 C 29.691406 1.34375 24.785156 0.03125 20.328125 -2.59375 C 15.867188 -5.226562 12.347656 -9 9.765625 -13.90625 C 7.179688 -18.8125 5.890625 -24.519531 5.890625 -31.03125 C 5.890625 -37.269531 7.113281 -42.820312 9.5625 -47.6875 C 12.019531 -52.550781 15.519531 -56.316406 20.0625 -58.984375 C 24.613281 -61.660156 29.921875 -63 35.984375 -63 C 39.546875 -63 42.890625 -62.375 46.015625 -61.125 C 49.140625 -59.882812 51.789062 -58.347656 53.96875 -56.515625 C 56.15625 -54.691406 57.609375 -52.882812 58.328125 -51.09375 L 58.59375 -61.40625 L 72.234375 -61.40625 L 72.234375 -0.40625 C 72.234375 10.03125 69.554688 18.054688 64.203125 23.671875 C 58.859375 29.296875 50.566406 32.109375 39.328125 32.109375 Z M 39.0625 -10.828125 C 44.144531 -10.828125 48.425781 -12.585938 51.90625 -16.109375 C 55.382812 -19.640625 57.125 -24.257812 57.125 -29.96875 L 57.125 -30.90625 C 57.125 -34.738281 56.316406 -38.171875 54.703125 -41.203125 C 53.097656 -44.234375 50.914062 -46.59375 48.15625 -48.28125 C 45.394531 -49.976562 42.363281 -50.828125 39.0625 -50.828125 C 33.351562 -50.828125 28.9375 -48.976562 25.8125 -45.28125 C 22.695312 -41.582031 21.140625 -36.789062 21.140625 -30.90625 C 21.140625 -24.925781 22.675781 -20.082031 25.75 -16.375 C 28.820312 -12.675781 33.257812 -10.828125 39.0625 -10.828125 Z M 39.0625 -10.828125 "/></g></g></g><g fill="#004aad" fill-opacity="1"><g transform="translate(585.260406, 197.302051)"><g><path d="M 27.15625 1.875 L 1.734375 -61.40625 L 18.0625 -61.40625 L 31.171875 -22.34375 L 34.109375 -12.84375 L 37.046875 -22.34375 L 50.828125 -61.40625 L 66.609375 -61.40625 L 28.890625 33.703125 L 13.90625 33.703125 Z M 27.15625 1.875 "/></g></g></g><g fill="#004aad" fill-opacity="1"><g transform="translate(645.98518, 197.302051)"><g><path d="M 19.390625 1.34375 C 16.722656 1.34375 14.453125 0.429688 12.578125 -1.390625 C 10.703125 -3.222656 9.765625 -5.476562 9.765625 -8.15625 C 9.765625 -10.925781 10.675781 -13.222656 12.5 -15.046875 C 14.332031 -16.878906 16.628906 -17.796875 19.390625 -17.796875 C 22.160156 -17.796875 24.457031 -16.878906 26.28125 -15.046875 C 28.113281 -13.222656 29.03125 -10.925781 29.03125 -8.15625 C 29.03125 -5.476562 28.113281 -3.222656 26.28125 -1.390625 C 24.457031 0.429688 22.160156 1.34375 19.390625 1.34375 Z M 19.390625 1.34375 "/></g></g></g><g fill="#004aad" fill-opacity="1"><g transform="translate(37.848831, 231.512035)"><g><path d="M 19.425781 -17.566406 C 20.386719 -17.566406 21.425781 -17.511719 22.382812 -17.457031 L 22.382812 -20.988281 C 21.453125 -20.851562 20.359375 -20.796875 19.425781 -20.796875 L 8.425781 -20.796875 C 7.523438 -20.796875 6.402344 -20.851562 5.527344 -20.988281 L 5.527344 -17.457031 C 6.347656 -17.511719 7.496094 -17.566406 8.453125 -17.566406 Z M 4.953125 -13.816406 C 4.105469 -13.816406 3.148438 -13.898438 2.324219 -13.980469 L 2.324219 -10.398438 C 3.09375 -10.453125 4.160156 -10.507812 4.953125 -10.507812 L 12.476562 -10.507812 C 12.367188 -8.207031 11.902344 -6.15625 10.78125 -4.460938 C 9.6875 -2.875 7.769531 -1.285156 5.828125 -0.546875 L 9.03125 1.777344 C 11.464844 0.546875 13.570312 -1.585938 14.53125 -3.476562 C 15.515625 -5.390625 16.117188 -7.6875 16.28125 -10.507812 L 22.875 -10.507812 C 23.640625 -10.507812 24.679688 -10.480469 25.363281 -10.425781 L 25.363281 -13.980469 C 24.625 -13.871094 23.449219 -13.816406 22.875 -13.816406 Z M 4.953125 -13.816406 "/></g></g></g><g fill="#004aad" fill-opacity="1"><g transform="translate(67.091164, 231.512035)"><g><path d="M 21.808594 -18.742188 C 21.179688 -18.550781 20.277344 -18.414062 19.425781 -18.414062 L 13.925781 -18.414062 L 14.007812 -18.550781 C 14.339844 -19.152344 15.023438 -20.386719 15.679688 -21.34375 L 11.683594 -22.65625 C 11.4375 -21.726562 10.863281 -20.46875 10.453125 -19.78125 C 9.085938 -17.429688 6.703125 -13.898438 1.914062 -10.972656 L 4.980469 -8.703125 C 7.660156 -10.535156 10.042969 -12.941406 11.875 -15.324219 L 19.5625 -15.324219 C 19.125 -13.269531 17.539062 -9.988281 15.679688 -7.851562 C 13.296875 -5.144531 10.261719 -2.761719 4.652344 -1.09375 L 7.878906 1.804688 C 13.023438 -0.246094 16.335938 -2.734375 18.933594 -5.910156 C 21.398438 -8.976562 22.957031 -12.613281 23.695312 -15.050781 C 23.914062 -15.734375 24.296875 -16.5 24.597656 -17.019531 Z M 21.808594 -18.742188 "/></g></g></g><g fill="#004aad" fill-opacity="1"><g transform="translate(96.333497, 231.512035)"><g><path d="M 22.820312 -20.03125 L 18.550781 -21.125 C 17.8125 -17.210938 16.007812 -12.476562 13.378906 -9.304688 C 10.945312 -6.347656 7.25 -3.667969 2.984375 -2.1875 L 6.101562 1.011719 C 10.316406 -0.683594 14.144531 -4.023438 16.472656 -6.921875 C 18.6875 -9.6875 20.46875 -13.816406 21.617188 -16.964844 C 21.945312 -17.839844 22.328125 -19.042969 22.820312 -20.03125 Z M 22.820312 -20.03125 "/></g></g></g><g fill="#004aad" fill-opacity="1"><g transform="translate(125.575832, 231.512035)"><g><path d="M 20.386719 -15.871094 L 20.386719 -4.515625 L 7.167969 -4.515625 L 7.167969 -15.871094 Z M 24.050781 -16.746094 C 24.050781 -17.566406 24.050781 -18.578125 24.105469 -19.398438 C 23.121094 -19.34375 22.082031 -19.34375 21.398438 -19.34375 L 6.347656 -19.34375 C 5.609375 -19.34375 4.570312 -19.371094 3.449219 -19.398438 C 3.503906 -18.632812 3.503906 -17.511719 3.503906 -16.746094 L 3.503906 -3.367188 C 3.503906 -2.050781 3.449219 0.328125 3.421875 0.464844 L 7.195312 0.464844 L 7.167969 -1.039062 L 20.359375 -1.039062 L 20.332031 0.464844 L 24.105469 0.464844 C 24.105469 0.355469 24.050781 -2.269531 24.050781 -3.339844 Z M 24.050781 -16.746094 "/></g></g></g><g fill="#004aad" fill-opacity="1"><g transform="translate(154.818162, 231.512035)"><g><path d="M 19.945312 -21.015625 L 17.675781 -20.058594 C 18.660156 -18.660156 19.289062 -17.484375 20.085938 -15.761719 L 22.464844 -16.773438 C 21.835938 -18.03125 20.742188 -19.863281 19.945312 -21.015625 Z M 23.722656 -22.328125 L 21.398438 -21.371094 C 22.410156 -20.003906 23.09375 -18.933594 23.96875 -17.210938 L 26.296875 -18.25 C 25.636719 -19.453125 24.570312 -21.234375 23.722656 -22.328125 Z M 8.070312 -21.535156 L 6.101562 -18.523438 C 7.90625 -17.511719 10.753906 -15.679688 12.285156 -14.613281 L 14.3125 -17.621094 C 12.886719 -18.605469 9.878906 -20.550781 8.070312 -21.535156 Z M 3.011719 -2.105469 L 5.0625 1.476562 C 7.46875 1.039062 11.410156 -0.328125 14.199219 -1.886719 C 18.660156 -4.488281 22.546875 -7.933594 25.0625 -11.738281 L 22.957031 -15.460938 C 20.796875 -11.546875 16.964844 -7.796875 12.3125 -5.199219 C 9.359375 -3.558594 6.074219 -2.625 3.011719 -2.105469 Z M 3.859375 -15.296875 L 1.886719 -12.285156 C 3.722656 -11.300781 6.566406 -9.46875 8.125 -8.371094 L 10.125 -11.4375 C 8.730469 -12.421875 5.71875 -14.3125 3.859375 -15.296875 Z M 3.859375 -15.296875 "/></g></g></g><g fill="#004aad" fill-opacity="1"><g transform="translate(184.060493, 231.512035)"><g><path d="M 2.515625 -8.371094 C 3.53125 -8.453125 5.363281 -8.507812 6.921875 -8.507812 L 21.617188 -8.507812 C 22.765625 -8.507812 24.160156 -8.398438 24.816406 -8.371094 L 24.816406 -12.667969 C 24.105469 -12.613281 22.875 -12.503906 21.617188 -12.503906 L 6.921875 -12.503906 C 5.5 -12.503906 3.503906 -12.585938 2.515625 -12.667969 Z M 2.515625 -8.371094 "/></g></g></g></svg>