<svg xmlns="http://www.w3.org/2000/svg" xmlns:xlink="http://www.w3.org/1999/xlink" width="500" zoomAndPan="magnify" viewBox="0 0 375 374.999991" height="500" preserveAspectRatio="xMidYMid meet" version="1.0"><defs><clipPath id="4d1d25574b"><path d="M 37.5 37.5 L 337.5 37.5 L 337.5 337.5 L 37.5 337.5 Z M 37.5 37.5 " clip-rule="nonzero"/></clipPath></defs><g clip-path="url(#4d1d25574b)"><path fill="#004aad" d="M 40.066406 37.5 L 334.933594 37.5 C 336.351562 37.5 337.5 38.648438 337.5 40.066406 L 337.5 334.933594 C 337.5 336.351562 336.351562 337.5 334.933594 337.5 L 234.578125 337.5 C 198.652344 337.5 169.527344 308.375 169.527344 272.453125 L 169.527344 208.039062 C 169.527344 206.621094 168.378906 205.472656 166.960938 205.472656 L 138.476562 205.472656 C 136.8125 205.472656 135.589844 203.914062 135.984375 202.296875 L 143.519531 171.484375 C 143.800781 170.335938 144.832031 169.527344 146.015625 169.527344 L 166.960938 169.527344 C 168.378906 169.527344 169.527344 168.378906 169.527344 166.960938 L 169.527344 129.550781 C 169.527344 127.703125 171.421875 126.460938 173.117188 127.195312 L 203.925781 140.554688 C 204.863281 140.964844 205.472656 141.886719 205.472656 142.910156 L 205.472656 166.960938 C 205.472656 168.378906 206.621094 169.527344 208.039062 169.527344 L 253.898438 169.527344 C 255.5625 169.527344 256.789062 171.085938 256.390625 172.703125 L 248.855469 203.511719 C 248.578125 204.664062 247.542969 205.472656 246.363281 205.472656 L 208.039062 205.472656 C 206.621094 205.472656 205.472656 206.621094 205.472656 208.039062 L 205.472656 272.453125 C 205.472656 288.523438 218.5 301.554688 234.578125 301.554688 L 298.988281 301.554688 C 300.40625 301.554688 301.554688 300.40625 301.554688 298.988281 L 301.554688 76.011719 C 301.554688 74.59375 300.40625 73.445312 298.988281 73.445312 L 76.011719 73.445312 C 74.59375 73.445312 73.445312 74.59375 73.445312 76.011719 L 73.445312 316.960938 C 73.445312 318.378906 72.296875 319.527344 70.878906 319.527344 L 40.066406 319.527344 C 38.648438 319.527344 37.5 318.378906 37.5 316.960938 L 37.5 40.066406 C 37.5 38.648438 38.648438 37.5 40.066406 37.5 " fill-opacity="1" fill-rule="nonzero"/></g></svg>